<?xml version="1.0" encoding="utf-8"?>
<!-- Generator: Adobe Illustrator 21.1.0, SVG Export Plug-In . SVG Version: 6.00 Build 0)  -->
<svg version="1.1" id="Layer_1" xmlns="http://www.w3.org/2000/svg" xmlns:xlink="http://www.w3.org/1999/xlink" x="0px" y="0px"
	 viewBox="0 0 368.3 183.7" style="enable-background:new 0 0 368.3 183.7;" xml:space="preserve">
<style type="text/css">
	.st0{fill:#3A3434;}
	.st1{fill:#D89839;}
	.st2{fill:none;stroke:#000000;stroke-width:1.7609;stroke-linecap:round;stroke-miterlimit:10;}
	.st3{fill:none;stroke:#000000;stroke-linecap:round;stroke-miterlimit:10;}
	.st4{fill:none;stroke:#000000;stroke-width:1.4499;stroke-miterlimit:10;}
	.st5{fill:#3A3434;stroke:#000000;stroke-width:2.0716;stroke-linecap:round;stroke-miterlimit:10;}
	.st6{fill:none;stroke:#000000;stroke-width:2.0716;stroke-miterlimit:10;}
	.st7{fill:none;stroke:#000000;stroke-width:2.0716;stroke-linecap:round;stroke-miterlimit:10;}
	.st8{fill:#FFFFFF;stroke:#000000;stroke-width:1.5537;stroke-miterlimit:10;}
	.st9{fill:#3C2415;stroke:#000000;stroke-width:1.5537;stroke-miterlimit:10;}
	.st10{fill:#FFFFFF;}
</style>
<g>
	<g>
		<path class="st0" d="M278.7,119.8l-17.5,33.1c-1.4,2.6-1.9,5.6-1.4,8.5c0.5,3,1.2,6.9,2.1,10c1.7,5.9-33.5,6.3-38.2,3
			c-3.5-2.5,0.6-8.3,9.4-8.8c8.8-0.6,12.2-2.3,14.5-4.7c0,0,3.4-8.7,2.2-12.1c-1.1-3.4-25.2-2.8-24.5-39.1"/>
		<path class="st1" d="M249.9,152.6l-2.2,8.5c-2.3,2.4-5.7,4.1-14.5,4.7c-8.8,0.6-12.9,6.3-9.4,8.8c4.6,3.3,39.9,2.9,38.2-3
			c-0.9-3.1-1.8-10.4-2.3-13.4C259.7,158.3,253.5,160.2,249.9,152.6z"/>
		
			<ellipse transform="matrix(0.7879 -0.6158 0.6158 0.7879 -56.3498 175.4731)" class="st0" cx="226.5" cy="169.5" rx="4.7" ry="1.7"/>
		<path class="st2" d="M278.7,119.8l-17.5,33.1c-1.4,2.6-1.9,5.6-1.4,8.5c0.5,3,1.2,6.9,2.1,10c1.7,5.9-33.5,6.3-38.2,3
			c-3.5-2.5,0.6-8.3,9.4-8.8c8.8-0.6,12.2-2.3,14.5-4.7c0,0,3.4-8.7,2.2-12.1c-1.1-3.4-25.2-2.8-24.5-39.1"/>
		<path class="st3" d="M225.8,174.8c0,0-1.4-4.4,3.8-6.3"/>
		<path class="st3" d="M228.2,175.9c0,0-1.4-4.4,3.8-6.3"/>
	</g>
	<g>
		<path class="st0" d="M97.9,114.7l10.4,10.7c1,1.4,1.1,3.3,0.3,4.8L98,144.9c-2.5,4.9-2.2,9.6-1.7,12.5c0.5,3,1,5.3,1.9,8.4
			c1.7,5.9-24.7,6.3-29.4,3c-3.5-2.5,0.7-9.4,9.5-10c11.4-0.8,7.3-17.6,6.9-21.5c0,0,0.5-6-6.4-14.4"/>
		<path class="st1" d="M96.3,157.4c2.6,1.6,1,5.3,1.9,8.4c1.7,5.9-24.7,6.3-29.4,3c-3.5-2.5,0.4-8.4,9.5-10c2.9-1,6.8-4,7.3-7.4
			C86.3,147.3,94,156,96.3,157.4z"/>
		<path class="st2" d="M97.9,114.7l10.4,10.7c1,1.4,1.1,3.3,0.3,4.8L98,144.9c-2.5,4.9-2.2,9.6-1.7,12.5c0.5,3,1,5.3,1.9,8.4
			c1.7,5.9-24.7,6.3-29.4,3c-3.5-2.5,0.7-9.4,9.5-10c11.4-0.8,8.3-23.8,4.9-29.2"/>
		<path class="st3" d="M69.7,169.3c0,0-1.4-4.4,3.8-6.3"/>
		<path class="st3" d="M72.1,170.3c0,0-1.4-4.4,3.8-6.3"/>
	</g>
	<g>
		<path class="st0" d="M134.8,41.6c0,0-11.2-18.4-22.3-23.4c-10.6-4.9-32.1-9-46.8,3S31,16.1,31,16.1S13.8,3.9,10.1,3.9
			s-16.3,14.2,8.5,30.3s33.7,13.1,36.7,23.9c3,10.8-7.7,28.5-4.6,49.6c2.1,14.2,26.4,42.5,81,42.8c47.2,0.2,84.8-13.8,135.2-5.8
			c16.1,2.6,27.4-10,31.9-25.3c4-13.5-2.4-32.4-17-41.5c-18.6-11.6-36.3-2.1-56.7-2.8S158.9,83.6,134.8,41.6z"/>
		<path class="st1" d="M236.6,142.2c-57.2-0.6-57.1,8.5-104.3,8.3c-22.2-0.1-39.4-5.7-52.2-12c0,0,18.4-6.1,55.8-2.8
			C173.2,139,236.6,142.2,236.6,142.2z"/>
		<circle class="st1" cx="85.7" cy="15.9" r="3"/>
		<path class="st1" d="M6.7,6.1C8.6,3-6.2,18.2,18.6,34.2s33.7,13.1,36.7,23.9c3,10.8-7.7,28.5-4.6,49.6c0,0,19.1,2.8,14.7-17.9
			s9.9-10.6,13.3-17.2c3.4-6.7,0.4-7.1-7.9-9C62.7,61.8,58.6,50,59.8,43.3c1.1-6.7-11.3-6.6-22.8-11.2C25.7,27.5,0.7,16,6.7,6.1z"/>
		<path class="st4" d="M134.8,41.6c0,0-11.2-18.4-22.3-23.4c-10.6-4.9-32.1-9-46.8,3S31,16.1,31,16.1S13.8,3.9,10.1,3.9
			s-16.3,14.2,8.5,30.3s33.7,13.1,36.7,23.9c3,10.8-7.7,28.5-4.6,49.6c2.1,14.2,26.4,42.5,81,42.8c47.2,0.2,84.1-13.8,135.2-5.8
			c16.1,2.5,28.1-9.4,31.9-25.3c3.3-13.7-2.4-32.4-17-41.5c-18.6-11.6-36.3-2.1-56.7-2.8S158.9,83.6,134.8,41.6z"/>
		<path d="M6.4,12.1c-0.6,0.2-1.2,0.1-1.8-0.2c0,0-1-0.8-1.1-1.5C3,8,7.8,2,7.8,2c0.5-0.8,1.7-1.1,2.6-0.5l5.9,3.8
			c1.3,0.9,1.2,2.8-0.2,3.3L6.4,12.1z"/>
	</g>
	<g>
		<path class="st5" d="M116.9,81.1c-2.5,3.5-3.4,7.2-3.2,10.6c0,0.1-0.1,0.1-0.1,0.2c-0.9,5.3,7.4,18.3,7.4,18.3s-0.4-1.9-0.7-4.5
			c2.2,4.2,4.8,7.9,4.8,7.9s-0.5-2.2-1-5.3c1.9,2.6,3.5,4.6,3.5,4.6s-0.7-2-1.4-4.9c0.4,0.1,0.8,0.3,1.2,0.4c0,0,14.5,4.2,23.9,3.6
			c3.2,1.9,6,3.2,6,3.2s-1.2-1.2-2.8-3.1c1.8,1,3.2,1.7,3.2,1.7s-0.4-0.5-1.1-1.2c3.4,2,6.3,3.4,6.3,3.4s-1.6-1.7-3.6-4
			c1.4,0.7,2.3,1.2,2.3,1.2s-0.9-0.9-2.1-2.3c2.3,1,4.1,1.5,4.1,1.5s-1.9-1.5-4.2-3.7c2.6-0.1,4.4-0.3,4.4-0.3s-2-0.5-4.7-1.4
			c0.1-1-0.2-2.2-0.7-3.6c-3.7-8.8-3.5-16.1,3.7-26.9c3.4-5.2,3.3-10.8,1.1-15.6c2.9-0.1,5.8-0.6,5.8-0.6s-4.1-0.7-7.2-2
			c0,0,0-0.1-0.1-0.1c2.8-0.2,5.2-0.7,5.2-0.7s-3.5-0.6-7-1.8c-2.6-3-5.9-5.2-9.3-6.1l-13.7-5.4"/>
		<path class="st6" d="M116.9,81.1c-2.5,3.5-3.4,7.2-3.2,10.6c0,0.1-0.1,0.1-0.1,0.2c-0.9,5.3,7.4,18.3,7.4,18.3s-0.4-1.9-0.7-4.5
			c2.2,4.2,4.8,7.9,4.8,7.9s-0.5-2.2-1-5.3c1.9,2.6,3.5,4.6,3.5,4.6s-0.7-2-1.4-4.9c0.4,0.1,0.8,0.3,1.2,0.4c0,0,14.5,4.2,23.9,3.6
			c3.2,1.9,6,3.2,6,3.2s-1.2-1.2-2.8-3.1c1.8,1,3.2,1.7,3.2,1.7s-0.4-0.5-1.1-1.2c3.4,2,6.3,3.4,6.3,3.4s-1.6-1.7-3.6-4
			c1.4,0.7,2.3,1.2,2.3,1.2s-0.9-0.9-2.1-2.3c2.3,1,4.1,1.5,4.1,1.5s-1.9-1.5-4.2-3.7c2.6-0.1,4.4-0.3,4.4-0.3s-2-0.5-4.7-1.4
			c0.1-1-0.2-2.2-0.7-3.6c-3.7-8.8-3.5-16.1,3.7-26.9c3.4-5.2,3.3-10.8,1.1-15.6c2.9-0.1,5.8-0.6,5.8-0.6s-4.1-0.7-7.2-2
			c0,0,0-0.1-0.1-0.1c2.8-0.2,5.2-0.7,5.2-0.7s-3.5-0.6-7-1.8c-2.6-3-5.9-5.2-9.3-6.1l-13.7-5.4"/>
	</g>
	<g>
		<path class="st0" d="M295.7,103.8c10.2,6.2,29.8,6.2,29.8,6.2s-0.9-0.7-1.9-1.4c8.3,3.1,17-2.6,17-2.6s-4.2-0.8-5.1-1
			c-0.2-0.1-0.4-0.1-0.6-0.2c0,0,0.1,0,0.1,0c7.7,1,14.7-4.3,14.7-4.3s-1.5-0.2-3-0.3c5.3-2.4,8.7-6.8,8.7-6.8s-3,0.5-4.5,0.7
			c7.9-3.7,10.1-13.8,10.1-13.8s-1.4,1-2.6,1.8c3.8-4.2,5.5-9.1,5.5-9.1s-2.3,1.9-4,3.1c0.1-0.3,0.2-0.5,0.3-0.8
			c2.8-4,3.7-8.2,3.7-8.2s-0.7,0.5-1.6,1.1c1.3-5.1,1.6-8.7,1.6-8.7s-9.4,8.3-11.7,9.9c-19.6,13.7-64.7,18.6-64.7,18.6"/>
		<path class="st7" d="M298.3,105.2c10.2,6.2,27.2,4.8,27.2,4.8s-0.9-0.7-1.9-1.4c8.3,3.1,17-2.6,17-2.6s-4.2-0.8-5.1-1
			c-0.2-0.1-0.4-0.1-0.6-0.2c0,0,0.1,0,0.1,0c7.7,1,14.7-4.3,14.7-4.3s-1.5-0.2-3-0.3c5.3-2.4,8.7-6.8,8.7-6.8s-3,0.5-4.5,0.7
			c7.9-3.7,10.1-13.8,10.1-13.8s-1.4,1-2.6,1.8c3.8-4.2,5.5-9.1,5.5-9.1s-2.3,1.9-4,3.1c0.1-0.3,0.2-0.5,0.3-0.8
			c2.8-4,3.7-8.2,3.7-8.2s-0.7,0.5-1.6,1.1c1.3-5.1,1.6-8.7,1.6-8.7s-9.4,8.3-11.7,9.9c-19.6,13.7-61.4,18.2-61.4,18.2"/>
	</g>
	<g>
		<circle class="st8" cx="85.1" cy="30" r="13.3"/>
		<circle class="st9" cx="85.1" cy="30" r="10"/>
		<circle cx="84" cy="28.4" r="7.2"/>
		<circle class="st10" cx="85.7" cy="23.5" r="0.8"/>
		<circle class="st10" cx="87.6" cy="27.7" r="2.3"/>
	</g>
	<g>
		<path class="st0" d="M296.3,124.9l-15.7,29.7c-1.4,2.6-1.9,5.6-1.4,8.5c0.5,3,1.2,6.9,2.1,10c1.7,5.9-33.5,6.3-38.2,3
			c-3.5-2.5,0.6-8.3,9.4-8.8c8.8-0.6,12.2-2.3,14.5-4.7c0,0,3.4-8.7,2.2-12.1s-25.2-2.8-24.5-39.1"/>
		<path class="st1" d="M269.3,154.4l-2.2,8.5c-2.3,2.4-5.7,4.1-14.5,4.7c-8.8,0.6-12.9,6.3-9.4,8.8c4.6,3.3,39.9,2.9,38.2-3
			c-0.9-3.1-1.1-4.1-1.6-7.1C279.7,166.4,272.9,166.5,269.3,154.4z"/>
		<path class="st2" d="M294,131l-13.4,23.6c-1.4,2.6-1.9,5.6-1.4,8.5c0.5,3,1.2,6.9,2.1,10c1.7,5.9-33.5,6.3-38.2,3
			c-3.5-2.5,0.6-8.3,9.4-8.8c8.8-0.6,12.2-2.3,14.5-4.7c0,0,3.4-8.7,2.2-12.1s-25.2-2.8-24.5-39.1"/>
		<path class="st3" d="M245,176.8c0,0-1.4-4.4,3.8-6.3"/>
		<path class="st3" d="M247.4,177.8c0,0-1.4-4.4,3.8-6.3"/>
	</g>
	<g>
		<path class="st0" d="M120.8,119.9l10.4,10.7c1,1.4,1.1,3.3,0.3,4.8l-10.5,14.7c-2.5,4.9-2.2,9.6-1.7,12.5c0.5,3,1,5.3,1.9,8.4
			c1.7,5.9-24.7,6.3-29.4,3c-3.5-2.5,0.7-9.4,9.5-10c11.4-0.8,7.3-17.6,6.9-21.5c0,0,0.5-6-6.4-14.4"/>
		<path class="st1" d="M119.7,153.3c-1.4,5-0.9,6.5-0.5,9.4c0.5,3,1,5.3,1.9,8.4c1.7,5.9-24.7,6.3-29.4,3c-3.5-2.5,0.4-8.4,9.5-10
			c2.9-1,5-2.5,6.7-5.5C111.8,151.7,119.7,153.3,119.7,153.3z"/>
		<path class="st2" d="M120.8,119.9l10.4,10.7c1,1.4,1.1,3.3,0.3,4.8l-10.5,14.7c-2.5,4.9-2.2,9.6-1.7,12.5c0.5,3,1,5.3,1.9,8.4
			c1.7,5.9-24.7,6.3-29.4,3c-3.5-2.5,0.7-9.4,9.5-10c11.4-0.8,8.3-23.8,4.9-29.2"/>
		<path class="st3" d="M92.6,174.2c0,0-1.4-4.4,3.8-6.3"/>
		<path class="st3" d="M95,175.2c0,0-1.4-4.4,3.8-6.3"/>
	</g>
</g>
</svg>
