<?xml version="1.0" encoding="utf-8"?>
<!-- Generator: Adobe Illustrator 21.1.0, SVG Export Plug-In . SVG Version: 6.00 Build 0)  -->
<svg version="1.1" id="Layer_1" xmlns="http://www.w3.org/2000/svg" xmlns:xlink="http://www.w3.org/1999/xlink" x="0px" y="0px"
	 viewBox="0 0 360 47.8" style="enable-background:new 0 0 360 47.8;" xml:space="preserve">
<style type="text/css">
	.st0{fill:#F0BA29;}
</style>
<g>
	<path class="st0" d="M62.6,3.1l-13,41.7h-6.1l-9.8-30c-0.1-0.3-0.2-0.7-0.3-1.1c-0.1-0.4-0.2-0.8-0.3-1.2c-0.1,0.4-0.2,0.9-0.3,1.2
		c-0.1,0.4-0.2,0.7-0.3,1.1l-9.9,30h-6.1L3.5,3.1h5.7c0.6,0,1.1,0.1,1.5,0.4s0.7,0.7,0.8,1.1l7.8,26.8c0.2,0.6,0.3,1.2,0.4,1.9
		s0.3,1.4,0.4,2.1c0.1-0.7,0.3-1.4,0.4-2.1c0.2-0.7,0.3-1.3,0.5-1.9l9-26.8c0.1-0.4,0.4-0.7,0.8-1.1C31.2,3.2,31.7,3,32.3,3h2
		c0.6,0,1.1,0.2,1.5,0.5s0.6,0.7,0.8,1.1l8.9,26.8c0.2,0.6,0.4,1.2,0.5,1.8c0.2,0.6,0.3,1.3,0.5,2c0.1-0.7,0.3-1.4,0.4-2
		c0.1-0.6,0.3-1.3,0.4-1.8l7.8-26.8c0.1-0.4,0.4-0.8,0.8-1.1S56.8,3,57.4,3L62.6,3.1L62.6,3.1z"/>
	<path class="st0" d="M94.3,39.3v5.5h-26V3.1h26v5.5H75.1v12.6h15.4v5.3H75.1v12.9h19.2V39.3z"/>
	<path class="st0" d="M115.5,3.1c2.7,0,4.9,0.3,6.8,0.8s3.4,1.2,4.7,2.2c1.2,0.9,2.1,2.1,2.7,3.5c0.6,1.4,0.9,2.9,0.9,4.6
		c0,1-0.2,1.9-0.5,2.9c-0.3,0.9-0.8,1.8-1.4,2.6c-0.6,0.8-1.4,1.5-2.4,2.2c-0.9,0.6-2.1,1.2-3.4,1.6c5.9,1.3,8.9,4.4,8.9,9.4
		c0,1.8-0.3,3.4-1,4.9s-1.6,2.8-2.9,3.8c-1.3,1.1-2.8,1.9-4.7,2.5c-1.9,0.6-4,0.9-6.3,0.9h-15.3V3.1H115.5z M108.4,8.4v13h6.8
		c2.9,0,5.1-0.6,6.5-1.7s2.1-2.7,2.1-4.8c0-2.3-0.7-4-2-5s-3.4-1.5-6.3-1.5C115.5,8.4,108.4,8.4,108.4,8.4z M116.8,39.5
		c1.5,0,2.8-0.2,3.9-0.5c1.1-0.4,1.9-0.8,2.6-1.5c0.7-0.6,1.2-1.3,1.5-2.2c0.3-0.8,0.4-1.7,0.4-2.7c0-2-0.7-3.5-2-4.7
		s-3.5-1.7-6.4-1.7h-8.4v13.2h8.4V39.5z"/>
	<path class="st0" d="M190.6,23.9c0,3.1-0.5,5.9-1.5,8.5c-1,2.6-2.4,4.8-4.2,6.6s-4,3.3-6.6,4.3s-5.4,1.5-8.5,1.5H154V3.1h15.8
		c3.1,0,6,0.5,8.5,1.5c2.6,1,4.8,2.4,6.6,4.3c1.8,1.8,3.2,4,4.2,6.6C190.1,18,190.6,20.9,190.6,23.9z M183.7,23.9
		c0-2.4-0.3-4.6-1-6.5c-0.6-1.9-1.6-3.5-2.8-4.8s-2.7-2.3-4.4-3s-3.7-1.1-5.8-1.1h-9v30.8h9c2.1,0,4.1-0.3,5.8-1s3.2-1.7,4.4-3
		s2.1-2.9,2.8-4.8C183.3,28.5,183.7,26.4,183.7,23.9z"/>
	<path class="st0" d="M224.1,39.3v5.5h-26V3.1h26v5.5h-19.2v12.6h15.4v5.3h-15.4v12.9h19.2V39.3z"/>
	<path class="st0" d="M253.2,10.2c-0.2,0.3-0.4,0.6-0.7,0.8c-0.2,0.2-0.5,0.2-0.9,0.2s-0.8-0.2-1.2-0.5c-0.5-0.3-1-0.7-1.7-1
		c-0.7-0.4-1.5-0.7-2.4-1s-2-0.5-3.2-0.5s-2.2,0.1-3.1,0.4c-0.9,0.3-1.6,0.7-2.2,1.2c-0.6,0.5-1,1.1-1.3,1.8s-0.4,1.5-0.4,2.3
		c0,1.1,0.3,1.9,0.8,2.7c0.6,0.7,1.3,1.3,2.2,1.8s2,0.9,3.1,1.3c1.2,0.4,2.4,0.8,3.6,1.2c1.2,0.4,2.4,0.9,3.6,1.5
		c1.2,0.5,2.2,1.2,3.1,2.1c0.9,0.8,1.7,1.8,2.2,3c0.6,1.2,0.8,2.7,0.8,4.4c0,1.9-0.3,3.6-1,5.2c-0.6,1.6-1.6,3-2.8,4.2
		s-2.7,2.2-4.5,2.9s-3.8,1-6,1c-1.3,0-2.6-0.1-3.9-0.4c-1.3-0.3-2.5-0.6-3.6-1.1c-1.2-0.5-2.2-1-3.2-1.7s-1.9-1.4-2.7-2.3l2-3.2
		c0.2-0.3,0.4-0.5,0.7-0.6c0.3-0.2,0.6-0.2,0.9-0.2c0.4,0,0.9,0.2,1.5,0.6c0.5,0.4,1.2,0.9,2,1.4s1.7,0.9,2.8,1.4
		c1.1,0.4,2.4,0.6,3.9,0.6c2.5,0,4.4-0.6,5.7-1.8s2-2.8,2-5c0-1.2-0.3-2.1-0.8-2.9c-0.6-0.7-1.3-1.4-2.2-1.9s-2-0.9-3.1-1.3
		c-1.2-0.3-2.4-0.7-3.6-1.1c-1.2-0.4-2.4-0.9-3.6-1.4c-1.2-0.5-2.2-1.2-3.1-2.1c-0.9-0.9-1.7-1.9-2.2-3.2c-0.6-1.3-0.8-2.8-0.8-4.7
		c0-1.5,0.3-3,0.9-4.4c0.6-1.4,1.4-2.7,2.6-3.8c1.1-1.1,2.5-2,4.2-2.6c1.7-0.7,3.6-1,5.7-1c2.4,0,4.6,0.4,6.6,1.1
		c2,0.8,3.7,1.8,5.2,3.2L253.2,10.2z"/>
	<path class="st0" d="M269.9,44.8H263V3.1h6.8v41.7H269.9z"/>
	<path class="st0" d="M313.9,24.3v16.5c-4.2,3-9,4.5-14.5,4.5c-3.4,0-6.4-0.5-9.2-1.6c-2.7-1.1-5.1-2.5-7-4.4s-3.4-4.1-4.5-6.7
		c-1-2.6-1.6-5.5-1.6-8.6c0-3.2,0.5-6,1.5-8.7s2.4-4.9,4.3-6.8s4.1-3.3,6.8-4.4c2.6-1,5.6-1.5,8.9-1.5c1.7,0,3.2,0.1,4.7,0.4
		c1.4,0.3,2.8,0.6,4,1.1s2.4,1,3.4,1.7s2,1.4,2.9,2.2l-1.9,3.1c-0.3,0.5-0.7,0.8-1.2,0.9c-0.5,0.1-1,0-1.6-0.3s-1.2-0.7-1.8-1
		c-0.6-0.4-1.3-0.7-2.2-1c-0.8-0.3-1.7-0.6-2.8-0.8c-1.1-0.2-2.3-0.3-3.8-0.3c-2.2,0-4.2,0.4-6,1.1c-1.8,0.7-3.3,1.8-4.5,3.1
		c-1.3,1.3-2.2,3-2.9,4.9c-0.7,1.9-1,4-1,6.4c0,2.5,0.4,4.7,1.1,6.7s1.7,3.6,3,5s2.9,2.4,4.8,3.1c1.9,0.7,3.9,1.1,6.2,1.1
		c1.7,0,3.3-0.2,4.6-0.5c1.3-0.4,2.7-0.9,4-1.5v-8.3H302c-0.4,0-0.8-0.1-1-0.4c-0.3-0.2-0.4-0.6-0.4-0.9v-3.9h13.3V24.3z"/>
	<path class="st0" d="M356.5,3.1v41.7H353c-0.5,0-1-0.1-1.3-0.3c-0.4-0.2-0.7-0.5-1-0.9l-22.9-29.5c0.1,0.6,0.1,1.1,0.1,1.7
		s0,1.1,0,1.5v27.5h-6V3.1h3.5c0.3,0,0.5,0,0.7,0s0.4,0.1,0.6,0.2c0.2,0.1,0.3,0.2,0.5,0.3c0.2,0.2,0.3,0.3,0.5,0.6l23,29.5
		c-0.1-0.6-0.1-1.2-0.1-1.8c0-0.6,0-1.1,0-1.6V3.1H356.5z"/>
</g>
</svg>
